<svg width="25" height="25" viewBox="0 0 25 25" fill="none" xmlns="http://www.w3.org/2000/svg">
<path d="M4.13258 14.0519C3.94335 14.0501 3.75854 13.9945 3.59961 13.8918C3.44069 13.7891 3.31417 13.6434 3.23477 13.4716C3.15536 13.2998 3.12632 13.1091 3.15102 12.9214C3.17573 12.7338 3.25316 12.5571 3.37432 12.4117L13.4091 2.34425C13.4845 2.25953 13.5864 2.20295 13.6982 2.18381C13.81 2.16467 13.925 2.18411 14.0243 2.23892C14.1235 2.29374 14.2012 2.38068 14.2446 2.48548C14.288 2.59028 14.2944 2.7067 14.2629 2.81564L12.263 8.80958C12.2044 8.96034 12.1832 9.12307 12.2013 9.28381C12.2194 9.44455 12.2762 9.59851 12.3668 9.73247C12.4575 9.86643 12.5793 9.97641 12.7218 10.053C12.8643 10.1295 13.0232 10.1703 13.185 10.172L20.1844 10.265C20.3736 10.2669 20.5584 10.3224 20.7173 10.4252C20.8762 10.5279 21.0028 10.6736 21.0822 10.8454C21.1616 11.0171 21.1906 11.2079 21.1659 11.3955C21.1412 11.5832 21.0638 11.7599 20.9426 11.9053L10.9079 21.9727C10.8325 22.0574 10.7305 22.114 10.6187 22.1332C10.5069 22.1523 10.392 22.1329 10.2927 22.0781C10.1934 22.0232 10.1157 21.9363 10.0723 21.8315C10.029 21.7267 10.0225 21.6103 10.054 21.5013L12.0539 15.5074C12.1126 15.3566 12.1337 15.1939 12.1156 15.0332C12.0976 14.8724 12.0408 14.7185 11.9501 14.5845C11.8594 14.4505 11.7376 14.3406 11.5951 14.264C11.4526 14.1875 11.2937 14.1466 11.132 14.145L4.13258 14.0519Z" stroke="#00FF41" stroke-width="2" stroke-linecap="round" stroke-linejoin="round"/>
</svg>
