<svg width="32" height="32" viewBox="0 0 32 32" fill="none" xmlns="http://www.w3.org/2000/svg">
<path d="M20 29.3334V24.0001C20.1855 22.3298 19.7066 20.6536 18.6667 19.3334C22.6667 19.3334 26.6667 16.6667 26.6667 12.0001C26.7733 10.3334 26.3067 8.69341 25.3333 7.33341C25.7067 5.80008 25.7067 4.20008 25.3333 2.66675C25.3333 2.66675 24 2.66675 21.3333 4.66675C17.8133 4.00008 14.1867 4.00008 10.6667 4.66675C8.00001 2.66675 6.66668 2.66675 6.66668 2.66675C6.26668 4.20008 6.26668 5.80008 6.66668 7.33341C5.69584 8.68793 5.22464 10.3371 5.33334 12.0001C5.33334 16.6667 9.33334 19.3334 13.3333 19.3334C12.8133 19.9867 12.4267 20.7334 12.2 21.5334C11.9733 22.3334 11.9067 23.1734 12 24.0001V29.3334" stroke="#00FF41" stroke-width="2.66667" stroke-linecap="round" stroke-linejoin="round"/>
<path d="M12 23.9999C5.98663 26.6666 5.33329 21.3333 2.66663 21.3333" stroke="#00FF41" stroke-width="2.66667" stroke-linecap="round" stroke-linejoin="round"/>
</svg>
