<svg width="32" height="32" viewBox="0 0 32 32" fill="none" xmlns="http://www.w3.org/2000/svg">
<path d="M21.3333 10.6667C23.455 10.6667 25.4899 11.5096 26.9902 13.0099C28.4905 14.5102 29.3333 16.545 29.3333 18.6667V28.0001H24V18.6667C24 17.9595 23.719 17.2812 23.2189 16.7811C22.7188 16.281 22.0406 16.0001 21.3333 16.0001C20.6261 16.0001 19.9478 16.281 19.4477 16.7811C18.9476 17.2812 18.6666 17.9595 18.6666 18.6667V28.0001H13.3333V18.6667C13.3333 16.545 14.1762 14.5102 15.6765 13.0099C17.1768 11.5096 19.2116 10.6667 21.3333 10.6667Z" stroke="#00FF41" stroke-width="2.66667" stroke-linecap="round" stroke-linejoin="round"/>
<path d="M8.00002 12H2.66669V28H8.00002V12Z" stroke="#00FF41" stroke-width="2.66667" stroke-linecap="round" stroke-linejoin="round"/>
<path d="M5.33335 8.00008C6.80611 8.00008 8.00002 6.80617 8.00002 5.33341C8.00002 3.86066 6.80611 2.66675 5.33335 2.66675C3.86059 2.66675 2.66669 3.86066 2.66669 5.33341C2.66669 6.80617 3.86059 8.00008 5.33335 8.00008Z" stroke="#00FF41" stroke-width="2.66667" stroke-linecap="round" stroke-linejoin="round"/>
</svg>
